<svg id="Lager_1" data-name="Lager 1" xmlns="http://www.w3.org/2000/svg" viewBox="0 0 220.52 81.6"><defs><style>.cls-1{fill:#fff;}</style></defs><title>logo</title><path class="cls-1" d="M31.22,42.89s5.4,5.47,13,5.47c4.75,0,8.78-2.67,8.78-7.49,0-11-24.62-8.64-24.62-24.27,0-7.92,6.84-14.18,16.41-14.18S59.16,7.53,59.16,7.53l-3.24,5.9A18,18,0,0,0,44.75,9c-5.4,0-9.21,3.39-9.21,7.42,0,10.51,24.62,7.7,24.62,24.19C60.16,48.5,54.11,55,44,55a23.76,23.76,0,0,1-16.84-6.69Z" transform="translate(-3.87 -2.42)"/><path class="cls-1" d="M99.19,2.42a25.61,25.61,0,0,1,26.06,25.92c0,15-11.37,26.64-26.06,26.64S73.05,43.32,73.05,28.34A25.68,25.68,0,0,1,99.19,2.42Zm0,46c10.37,0,18.72-8.64,18.72-20.09,0-11.09-8.35-19.44-18.72-19.44s-18.8,8.35-18.8,19.44C80.39,39.79,88.82,48.43,99.19,48.43Z" transform="translate(-3.87 -2.42)"/><path class="cls-1" d="M211.87,39.5H192.71l-5,14.62h-7.34L198.62,3.28h7.48l18.3,50.84H217Zm-9.58-29.23s-1.15,4.6-2,7.2L194.58,33.6H210l-5.61-16.13c-.87-2.6-1.95-7.2-1.95-7.2Z" transform="translate(-3.87 -2.42)"/><polygon class="cls-1" points="0.13 7.96 0.13 51.7 7.26 51.7 7.26 0.86 7.22 0.86 0.13 7.96"/><polygon class="cls-1" points="167.72 45.51 144.99 45.51 144.99 0.86 137.86 0.86 137.86 51.7 161.52 51.7 167.72 45.51"/><path class="cls-1" d="M11.81,83.89H10.52a.62.62,0,0,1-.58-.31L7.15,79.74a1.08,1.08,0,0,0-.27-.26,1.08,1.08,0,0,0-.46-.07H5.32v4.48H3.87V73.14h3a6.48,6.48,0,0,1,1.76.21A3.37,3.37,0,0,1,9.9,74a2.33,2.33,0,0,1,.71.94,3,3,0,0,1,.24,1.23,3.12,3.12,0,0,1-.18,1.07,2.88,2.88,0,0,1-.52.88,3.13,3.13,0,0,1-.84.68,4.42,4.42,0,0,1-1.11.42,1.45,1.45,0,0,1,.48.45Zm-5-5.54A3.42,3.42,0,0,0,8,78.19a2.08,2.08,0,0,0,.81-.43,1.79,1.79,0,0,0,.49-.67,2.2,2.2,0,0,0,.17-.86,1.72,1.72,0,0,0-.63-1.45,3,3,0,0,0-1.89-.49H5.32v4.06Z" transform="translate(-3.87 -2.42)"/><path class="cls-1" d="M25.06,82.71v1.18H18.43V73.14h6.62v1.19H19.88V77.9h4.19V79H19.88v3.67Z" transform="translate(-3.87 -2.42)"/><path class="cls-1" d="M37.75,74.82a.51.51,0,0,1-.15.17.29.29,0,0,1-.19.06.53.53,0,0,1-.3-.13c-.11-.08-.26-.18-.43-.28a3.28,3.28,0,0,0-.62-.28,2.55,2.55,0,0,0-.88-.13,2.51,2.51,0,0,0-.86.13,1.78,1.78,0,0,0-.62.36,1.33,1.33,0,0,0-.38.53,1.57,1.57,0,0,0-.13.65,1.21,1.21,0,0,0,.22.75,1.85,1.85,0,0,0,.59.51,4.13,4.13,0,0,0,.82.36l1,.32c.32.11.63.23.94.37a3.52,3.52,0,0,1,.83.52,2.48,2.48,0,0,1,.58.77,2.56,2.56,0,0,1,.22,1.13A3.6,3.6,0,0,1,38.1,82,3.1,3.1,0,0,1,37.4,83a3.42,3.42,0,0,1-1.13.72,4.3,4.3,0,0,1-1.53.26,4.67,4.67,0,0,1-1.9-.38,4.51,4.51,0,0,1-1.47-1l.42-.69a.5.5,0,0,1,.15-.14.33.33,0,0,1,.19-.06.42.42,0,0,1,.22.08,2.12,2.12,0,0,1,.28.2l.36.26a2.63,2.63,0,0,0,.47.27,2.82,2.82,0,0,0,.58.19,2.88,2.88,0,0,0,.75.08,2.65,2.65,0,0,0,.92-.14,2,2,0,0,0,.69-.4,1.82,1.82,0,0,0,.43-.62,2.07,2.07,0,0,0,.15-.8,1.4,1.4,0,0,0-.22-.8,1.86,1.86,0,0,0-.59-.52,4.13,4.13,0,0,0-.82-.36l-1-.3c-.32-.1-.63-.22-.94-.35a3.1,3.1,0,0,1-.83-.53,2.34,2.34,0,0,1-.58-.81,3.09,3.09,0,0,1,0-2.29,2.93,2.93,0,0,1,.65-.95,3.31,3.31,0,0,1,1-.66A3.91,3.91,0,0,1,35.16,73a4.52,4.52,0,0,1,1.64.29,3.83,3.83,0,0,1,1.3.82Z" transform="translate(-3.87 -2.42)"/><path class="cls-1" d="M52.82,74.37H49.34v9.52H47.89V74.37H44.4V73.14h8.42Z" transform="translate(-3.87 -2.42)"/><path class="cls-1" d="M67.25,83.89H66.13a.47.47,0,0,1-.32-.1.55.55,0,0,1-.18-.24l-1-2.6H59.81l-1,2.6a.56.56,0,0,1-.17.24.49.49,0,0,1-.32.1H57.19l4.3-10.75H63Zm-3-4-1.68-4.37a4.79,4.79,0,0,1-.16-.46c-.06-.17-.11-.35-.16-.55a7.35,7.35,0,0,1-.32,1L60.21,79.9Z" transform="translate(-3.87 -2.42)"/><path class="cls-1" d="M77.73,82.74a3.06,3.06,0,0,0,1.2-.23,2.54,2.54,0,0,0,.88-.63,2.66,2.66,0,0,0,.56-1,3.69,3.69,0,0,0,.19-1.23V73.14H82v6.54a4.82,4.82,0,0,1-.3,1.72,4.05,4.05,0,0,1-.85,1.38,3.88,3.88,0,0,1-1.34.91,4.64,4.64,0,0,1-1.79.33A4.59,4.59,0,0,1,76,83.69a4,4,0,0,1-1.35-.91,3.9,3.9,0,0,1-.85-1.38,4.82,4.82,0,0,1-.3-1.72V73.14H74.9v6.53a3.79,3.79,0,0,0,.19,1.24,2.84,2.84,0,0,0,.55,1,2.68,2.68,0,0,0,.9.64A3,3,0,0,0,77.73,82.74Z" transform="translate(-3.87 -2.42)"/><path class="cls-1" d="M97.72,83.89H96.43a.61.61,0,0,1-.58-.31l-2.79-3.84a1,1,0,0,0-.28-.26,1.06,1.06,0,0,0-.45-.07h-1.1v4.48H89.78V73.14h3a6.61,6.61,0,0,1,1.77.21,3.4,3.4,0,0,1,1.22.6,2.35,2.35,0,0,1,.72.94,3.21,3.21,0,0,1,.23,1.23,3.12,3.12,0,0,1-.18,1.07,2.7,2.7,0,0,1-.52.88,3.09,3.09,0,0,1-.83.68,4.49,4.49,0,0,1-1.12.42,1.29,1.29,0,0,1,.48.45Zm-5-5.54a3.48,3.48,0,0,0,1.12-.16,2.24,2.24,0,0,0,.81-.43,1.79,1.79,0,0,0,.49-.67,2.2,2.2,0,0,0,.16-.86,1.72,1.72,0,0,0-.63-1.45,3,3,0,0,0-1.89-.49H91.23v4.06Z" transform="translate(-3.87 -2.42)"/><path class="cls-1" d="M113.07,83.89H112a.47.47,0,0,1-.32-.1.55.55,0,0,1-.18-.24l-1-2.6h-4.83l-1,2.6a.56.56,0,0,1-.17.24.49.49,0,0,1-.32.1H103l4.3-10.75h1.46Zm-3-4-1.69-4.37c0-.13-.1-.28-.15-.46s-.11-.35-.16-.55a7.35,7.35,0,0,1-.32,1L106,79.9Z" transform="translate(-3.87 -2.42)"/><path class="cls-1" d="M128.36,73.14V83.89h-.73a.65.65,0,0,1-.29-.06.82.82,0,0,1-.23-.2l-6.21-8.1c0,.12,0,.25,0,.37s0,.23,0,.33v7.66h-1.28V73.14h.91l.13,0a.35.35,0,0,1,.1.08.65.65,0,0,1,.11.12l6.22,8.09,0-.38c0-.12,0-.23,0-.34V73.14Z" transform="translate(-3.87 -2.42)"/><path class="cls-1" d="M145,78.72v4.13a5.86,5.86,0,0,1-1.73.87,6.73,6.73,0,0,1-2,.29,6.42,6.42,0,0,1-2.34-.4,5.11,5.11,0,0,1-1.78-1.13A5,5,0,0,1,136,80.75a6.68,6.68,0,0,1,0-4.47,4.88,4.88,0,0,1,1.1-1.74,5,5,0,0,1,1.73-1.12,6.84,6.84,0,0,1,3.47-.3,5.15,5.15,0,0,1,1,.27,4.58,4.58,0,0,1,.86.42,5.29,5.29,0,0,1,.75.57l-.42.66a.43.43,0,0,1-.25.19.41.41,0,0,1-.34-.07l-.41-.25a3.77,3.77,0,0,0-.57-.29,4.13,4.13,0,0,0-.79-.24,5.49,5.49,0,0,0-1.07-.1,4.37,4.37,0,0,0-1.65.3,3.6,3.6,0,0,0-1.25.85,3.68,3.68,0,0,0-.79,1.33,5.12,5.12,0,0,0-.28,1.76,5.33,5.33,0,0,0,.29,1.81,3.87,3.87,0,0,0,.82,1.36,3.46,3.46,0,0,0,1.31.85,4.65,4.65,0,0,0,1.71.29,4.47,4.47,0,0,0,1.33-.17,5.56,5.56,0,0,0,1.14-.46V79.83H142a.3.3,0,0,1-.23-.08.25.25,0,0,1-.09-.2v-.83Z" transform="translate(-3.87 -2.42)"/><path class="cls-1" d="M170.56,83.89h-1.3a1.13,1.13,0,0,1-.35,0,.89.89,0,0,1-.29-.22l-1.09-1.09a5.52,5.52,0,0,1-1.63,1.08,4.92,4.92,0,0,1-2,.4,3.6,3.6,0,0,1-1.17-.2,3.29,3.29,0,0,1-1-.59,3,3,0,0,1-.74-.94,2.83,2.83,0,0,1-.27-1.25,3,3,0,0,1,.17-1,3.19,3.19,0,0,1,.49-.86,3.67,3.67,0,0,1,.75-.72,4.71,4.71,0,0,1,.93-.54,4.52,4.52,0,0,1-.67-1.13,2.87,2.87,0,0,1-.22-1.12,2.7,2.7,0,0,1,.2-1,2.41,2.41,0,0,1,.57-.84,2.74,2.74,0,0,1,.92-.56A3.21,3.21,0,0,1,165,73a3.14,3.14,0,0,1,1.08.19,3,3,0,0,1,.84.51,2.5,2.5,0,0,1,.56.73,2.25,2.25,0,0,1,.23.87l-.83.16c-.16,0-.29,0-.37-.23a1.5,1.5,0,0,0-.17-.4,1.52,1.52,0,0,0-.29-.39,1.71,1.71,0,0,0-.45-.28,1.4,1.4,0,0,0-.6-.11,1.83,1.83,0,0,0-.68.12,1.65,1.65,0,0,0-.52.33,1.38,1.38,0,0,0-.32.5,1.61,1.61,0,0,0-.12.63,2.07,2.07,0,0,0,.06.5,2.2,2.2,0,0,0,.2.49,2.69,2.69,0,0,0,.33.5,5.71,5.71,0,0,0,.49.54l3.09,3.14a5.19,5.19,0,0,0,.45-1.06,5.39,5.39,0,0,0,.23-1.1.37.37,0,0,1,.09-.22.25.25,0,0,1,.21-.08h.82a6.15,6.15,0,0,1-.27,1.69,6,6,0,0,1-.76,1.55Zm-6.93-5.29a3.22,3.22,0,0,0-1.2,1,2.34,2.34,0,0,0-.4,1.3,1.94,1.94,0,0,0,.18.86,2,2,0,0,0,.47.63,2.12,2.12,0,0,0,.67.38,2.27,2.27,0,0,0,.77.13,3.67,3.67,0,0,0,1.51-.3,3.89,3.89,0,0,0,1.17-.83Z" transform="translate(-3.87 -2.42)"/><path class="cls-1" d="M189.65,73.14a6.5,6.5,0,0,1,1.7.2,3.31,3.31,0,0,1,1.18.55,2.23,2.23,0,0,1,.68.88,3.14,3.14,0,0,1,.22,1.18,2.36,2.36,0,0,1-.5,1.44,2.4,2.4,0,0,1-.62.56,3.31,3.31,0,0,1-.89.41,3.2,3.2,0,0,1,1.78.85,2.21,2.21,0,0,1,.59,1.62,3,3,0,0,1-.25,1.25,2.73,2.73,0,0,1-.73,1,3.55,3.55,0,0,1-1.19.63,5.31,5.31,0,0,1-1.61.22h-3.79V73.14Zm-2,1.15V78h1.92a3.68,3.68,0,0,0,1.06-.14,2,2,0,0,0,.75-.37,1.45,1.45,0,0,0,.44-.58,1.86,1.86,0,0,0,.15-.75,1.65,1.65,0,0,0-.57-1.39,2.92,2.92,0,0,0-1.77-.44ZM190,82.74a3.37,3.37,0,0,0,1.07-.15,1.94,1.94,0,0,0,.74-.4,1.62,1.62,0,0,0,.43-.61,2.22,2.22,0,0,0,.13-.79,1.61,1.61,0,0,0-.59-1.31A2.74,2.74,0,0,0,190,79h-2.32v3.75Z" transform="translate(-3.87 -2.42)"/><path class="cls-1" d="M209.66,83.89h-1.12a.47.47,0,0,1-.32-.1.55.55,0,0,1-.18-.24L207,81h-4.82l-1,2.6a.56.56,0,0,1-.17.24.49.49,0,0,1-.32.1H199.6l4.3-10.75h1.47Zm-3-4L205,75.53a4.79,4.79,0,0,1-.16-.46c-.06-.17-.11-.35-.16-.55a7.35,7.35,0,0,1-.32,1l-1.69,4.36Z" transform="translate(-3.87 -2.42)"/><path class="cls-1" d="M224.18,83.89h-1.29a.62.62,0,0,1-.58-.31l-2.79-3.84a1,1,0,0,0-.28-.26,1,1,0,0,0-.45-.07h-1.1v4.48h-1.45V73.14h3a6.48,6.48,0,0,1,1.76.21,3.45,3.45,0,0,1,1.23.6,2.33,2.33,0,0,1,.71.94,3,3,0,0,1,.24,1.23,3.12,3.12,0,0,1-.18,1.07,2.88,2.88,0,0,1-.52.88,3.13,3.13,0,0,1-.84.68,4.57,4.57,0,0,1-1.11.42,1.45,1.45,0,0,1,.48.45Zm-5-5.54a3.42,3.42,0,0,0,1.11-.16,2.16,2.16,0,0,0,.81-.43,1.79,1.79,0,0,0,.49-.67,2.2,2.2,0,0,0,.17-.86,1.72,1.72,0,0,0-.63-1.45,3,3,0,0,0-1.89-.49h-1.59v4.06Z" transform="translate(-3.87 -2.42)"/></svg>