<svg id="Lager_1" data-name="Lager 1" xmlns="http://www.w3.org/2000/svg" viewBox="0 0 220.52 81.6"><defs><style>.cls-1{fill:#030402;}</style></defs><title>logo_black</title><path class="cls-1" d="M31.28,43.65s5.4,5.47,13,5.47C49,49.12,53,46.46,53,41.63c0-11-24.63-8.64-24.63-24.27,0-7.92,6.85-14.18,16.42-14.18s14.4,5.11,14.4,5.11L56,14.2A17.9,17.9,0,0,0,44.81,9.8c-5.4,0-9.21,3.39-9.21,7.42,0,10.51,24.62,7.71,24.62,24.19,0,7.85-6,14.33-16.13,14.33a23.8,23.8,0,0,1-16.85-6.69Z" transform="translate(-3.93 -3.18)"/><path class="cls-1" d="M99.24,3.18A25.62,25.62,0,0,1,125.31,29.1c0,15-11.38,26.64-26.07,26.64S73.11,44.08,73.11,29.1A25.68,25.68,0,0,1,99.24,3.18Zm0,46c10.37,0,18.73-8.64,18.73-20.09C118,18,109.61,9.66,99.24,9.66S80.45,18,80.45,29.1C80.45,40.55,88.88,49.19,99.24,49.19Z" transform="translate(-3.93 -3.18)"/><path class="cls-1" d="M211.92,40.26H192.77l-5,14.62h-7.35L198.67,4h7.49l18.29,50.84H217ZM202.35,11s-1.16,4.61-2,7.2l-5.69,16.13h15.41l-5.62-16.13c-.86-2.59-1.94-7.2-1.94-7.2Z" transform="translate(-3.93 -3.18)"/><polygon class="cls-1" points="0.13 7.96 0.13 51.7 7.26 51.7 7.26 0.86 7.22 0.86 0.13 7.96"/><polygon class="cls-1" points="167.72 45.51 144.99 45.51 144.99 0.86 137.86 0.86 137.86 51.7 161.52 51.7 167.72 45.51"/><path class="cls-1" d="M11.87,84.65H10.58a.62.62,0,0,1-.58-.31L7.21,80.5a.8.8,0,0,0-.28-.25.86.86,0,0,0-.45-.08H5.38v4.48H3.93V73.9H7a6.48,6.48,0,0,1,1.76.21,3.45,3.45,0,0,1,1.23.6,2.33,2.33,0,0,1,.71.94,3.06,3.06,0,0,1,.23,1.23A3.38,3.38,0,0,1,10.73,78a2.88,2.88,0,0,1-.53.89,3.09,3.09,0,0,1-.83.67,4.57,4.57,0,0,1-1.11.42,1.57,1.57,0,0,1,.48.45Zm-5-5.54A3.73,3.73,0,0,0,8,79a2.42,2.42,0,0,0,.81-.44,1.79,1.79,0,0,0,.49-.67A2.2,2.2,0,0,0,9.49,77a1.72,1.72,0,0,0-.63-1.45A3,3,0,0,0,7,75.05H5.38v4.06Z" transform="translate(-3.93 -3.18)"/><path class="cls-1" d="M25.12,83.47v1.18H18.49V73.9h6.62v1.19H19.94v3.57h4.19V79.8H19.94v3.67Z" transform="translate(-3.93 -3.18)"/><path class="cls-1" d="M37.81,75.58a.52.52,0,0,1-.15.17.31.31,0,0,1-.19.06.48.48,0,0,1-.3-.13c-.12-.08-.26-.18-.43-.28a4.06,4.06,0,0,0-.62-.28,2.59,2.59,0,0,0-.88-.13,2.73,2.73,0,0,0-.86.13,1.93,1.93,0,0,0-.63.36,1.66,1.66,0,0,0-.38.53,1.76,1.76,0,0,0-.12.66,1.2,1.2,0,0,0,.22.74,1.92,1.92,0,0,0,.58.51,4.51,4.51,0,0,0,.83.36l.94.32a9.85,9.85,0,0,1,1,.37,3.27,3.27,0,0,1,.82.52,2.36,2.36,0,0,1,.59.77,2.56,2.56,0,0,1,.22,1.13,3.6,3.6,0,0,1-.24,1.32,3,3,0,0,1-.7,1.08,3.53,3.53,0,0,1-1.13.72,4.3,4.3,0,0,1-1.53.26,4.56,4.56,0,0,1-1.91-.38,4.46,4.46,0,0,1-1.46-1l.42-.69a.5.5,0,0,1,.15-.14.33.33,0,0,1,.19-.06.46.46,0,0,1,.22.08l.28.2.36.26a2.93,2.93,0,0,0,.46.27,4.07,4.07,0,0,0,.59.2,3.38,3.38,0,0,0,.74.07,2.67,2.67,0,0,0,.93-.14,1.83,1.83,0,0,0,.68-.4,1.69,1.69,0,0,0,.43-.62,1.87,1.87,0,0,0,.15-.8,1.33,1.33,0,0,0-.22-.8,1.72,1.72,0,0,0-.58-.52,4.13,4.13,0,0,0-.82-.36l-.95-.3c-.32-.1-.63-.22-.94-.35a3.1,3.1,0,0,1-.83-.53,2.39,2.39,0,0,1-.58-.8,2.89,2.89,0,0,1-.22-1.2,2.84,2.84,0,0,1,.87-2,3.31,3.31,0,0,1,1-.66,3.87,3.87,0,0,1,1.42-.25,4.52,4.52,0,0,1,1.64.29,3.8,3.8,0,0,1,1.3.83Z" transform="translate(-3.93 -3.18)"/><path class="cls-1" d="M52.87,75.13H49.4v9.52H48V75.13H44.46V73.9h8.41Z" transform="translate(-3.93 -3.18)"/><path class="cls-1" d="M67.31,84.65H66.19a.47.47,0,0,1-.32-.1.55.55,0,0,1-.18-.24l-1-2.6H59.86l-1,2.6a.56.56,0,0,1-.17.24.49.49,0,0,1-.32.1H57.25L61.54,73.9H63Zm-3-4-1.69-4.37q-.08-.2-.15-.45c-.06-.18-.11-.36-.16-.56a9,9,0,0,1-.32,1l-1.69,4.36Z" transform="translate(-3.93 -3.18)"/><path class="cls-1" d="M77.79,83.5A3,3,0,0,0,79,83.27a2.48,2.48,0,0,0,.89-.63,2.81,2.81,0,0,0,.56-1,4,4,0,0,0,.19-1.23V73.9h1.45v6.54a4.82,4.82,0,0,1-.3,1.72,4.05,4.05,0,0,1-.85,1.38,3.79,3.79,0,0,1-1.35.91,5,5,0,0,1-3.56,0,3.83,3.83,0,0,1-2.21-2.29,5,5,0,0,1-.29-1.72V73.9H75v6.53a3.79,3.79,0,0,0,.2,1.24,2.68,2.68,0,0,0,.55,1,2.51,2.51,0,0,0,.89.64A3.09,3.09,0,0,0,77.79,83.5Z" transform="translate(-3.93 -3.18)"/><path class="cls-1" d="M97.78,84.65H96.49a.64.64,0,0,1-.59-.31L93.11,80.5a.7.7,0,0,0-.27-.25.91.91,0,0,0-.45-.08H91.28v4.48H89.83V73.9h3a6.61,6.61,0,0,1,1.77.21,3.4,3.4,0,0,1,1.22.6,2.45,2.45,0,0,1,.72.94,3.25,3.25,0,0,1,.23,1.23A3.12,3.12,0,0,1,96.63,78a2.85,2.85,0,0,1-.52.89,3.44,3.44,0,0,1-.83.67,4.49,4.49,0,0,1-1.12.42,1.37,1.37,0,0,1,.48.45Zm-5-5.54A3.84,3.84,0,0,0,93.93,79a2.42,2.42,0,0,0,.81-.44,1.9,1.9,0,0,0,.49-.67,2.2,2.2,0,0,0,.16-.86,1.72,1.72,0,0,0-.63-1.45,3,3,0,0,0-1.89-.49H91.28v4.06Z" transform="translate(-3.93 -3.18)"/><path class="cls-1" d="M113.13,84.65H112a.46.46,0,0,1-.32-.1.55.55,0,0,1-.18-.24l-1-2.6h-4.83l-1,2.6a.56.56,0,0,1-.17.24.49.49,0,0,1-.32.1h-1.12l4.29-10.75h1.47Zm-3-4-1.69-4.37q-.07-.2-.15-.45c-.06-.18-.11-.36-.16-.56a9,9,0,0,1-.32,1l-1.69,4.36Z" transform="translate(-3.93 -3.18)"/><path class="cls-1" d="M128.42,73.9V84.65h-.73a.62.62,0,0,1-.29-.06.82.82,0,0,1-.23-.2L121,76.29l0,.37v8h-1.27V73.9h.75l.16,0a.35.35,0,0,1,.12,0l.11.08.11.12,6.22,8.09,0-.37c0-.13,0-.24,0-.35V73.9Z" transform="translate(-3.93 -3.18)"/><path class="cls-1" d="M145.05,79.48v4.13a6,6,0,0,1-1.73.87,7.07,7.07,0,0,1-4.35-.11,5.14,5.14,0,0,1-1.78-1.12,4.92,4.92,0,0,1-1.14-1.74A6.52,6.52,0,0,1,136,77a4.8,4.8,0,0,1,2.83-2.86,6.34,6.34,0,0,1,2.28-.4,7.44,7.44,0,0,1,1.19.1,5.15,5.15,0,0,1,1,.27,4.93,4.93,0,0,1,.86.43,4.5,4.5,0,0,1,.74.56l-.41.66a.39.39,0,0,1-.25.19.4.4,0,0,1-.34-.07l-.41-.25a3.77,3.77,0,0,0-.57-.29,5.35,5.35,0,0,0-.79-.24,5.49,5.49,0,0,0-1.07-.1,4.33,4.33,0,0,0-1.65.3,3.51,3.51,0,0,0-1.25.85,3.76,3.76,0,0,0-.79,1.33,5.16,5.16,0,0,0-.28,1.76,5.09,5.09,0,0,0,.29,1.81,3.64,3.64,0,0,0,.82,1.36,3.5,3.5,0,0,0,1.3.85,4.7,4.7,0,0,0,1.72.29,4.9,4.9,0,0,0,1.33-.16,6.23,6.23,0,0,0,1.14-.47V80.59h-1.67a.28.28,0,0,1-.23-.08.25.25,0,0,1-.09-.2v-.83Z" transform="translate(-3.93 -3.18)"/><path class="cls-1" d="M170.62,84.65h-1.3a1.08,1.08,0,0,1-.35-.05,1,1,0,0,1-.3-.22l-1.08-1.09A5.65,5.65,0,0,1,166,84.37a4.92,4.92,0,0,1-2,.4,3.35,3.35,0,0,1-1.17-.2,3.11,3.11,0,0,1-1-.59A3,3,0,0,1,161,83a2.9,2.9,0,0,1-.1-2.25,3.19,3.19,0,0,1,.49-.86,3.89,3.89,0,0,1,.74-.72,5.11,5.11,0,0,1,.94-.54,4.66,4.66,0,0,1-.67-1.12,3,3,0,0,1-.22-1.13,2.7,2.7,0,0,1,.2-1,2.41,2.41,0,0,1,.57-.84,3,3,0,0,1,.91-.56,3.3,3.3,0,0,1,1.21-.21,2.92,2.92,0,0,1,1.08.2,2.71,2.71,0,0,1,.84.5,2.63,2.63,0,0,1,.56.73,2.44,2.44,0,0,1,.23.87l-.83.16c-.17.05-.29,0-.37-.23a1.5,1.5,0,0,0-.17-.4,1.36,1.36,0,0,0-.3-.39,1.51,1.51,0,0,0-.44-.28,1.4,1.4,0,0,0-.6-.11,1.83,1.83,0,0,0-.68.12,1.45,1.45,0,0,0-.85.83,1.9,1.9,0,0,0-.11.63,2.07,2.07,0,0,0,.06.5,2.74,2.74,0,0,0,.19.49,3.41,3.41,0,0,0,.34.5,5.5,5.5,0,0,0,.48.54l3.09,3.14a5,5,0,0,0,.46-1.06,5.25,5.25,0,0,0,.23-1.1.37.37,0,0,1,.09-.22.29.29,0,0,1,.21-.08h.81a5.43,5.43,0,0,1-.27,1.69,5.7,5.7,0,0,1-.75,1.55Zm-6.93-5.29a3.22,3.22,0,0,0-1.2,1,2.27,2.27,0,0,0-.4,1.3,1.94,1.94,0,0,0,.18.86,2,2,0,0,0,.47.63,1.94,1.94,0,0,0,.67.38,2.22,2.22,0,0,0,.76.14,3.72,3.72,0,0,0,1.52-.31,4,4,0,0,0,1.17-.83Z" transform="translate(-3.93 -3.18)"/><path class="cls-1" d="M189.7,73.9a6.58,6.58,0,0,1,1.71.2,3.49,3.49,0,0,1,1.18.55,2.26,2.26,0,0,1,.68.89,3.05,3.05,0,0,1,.21,1.17,2.27,2.27,0,0,1-.49,1.44,2.9,2.9,0,0,1-.63.57,3.47,3.47,0,0,1-.89.4,3.3,3.3,0,0,1,1.79.85,2.26,2.26,0,0,1,.59,1.62,3,3,0,0,1-.25,1.25,2.64,2.64,0,0,1-.74,1,3.41,3.41,0,0,1-1.18.63,5.31,5.31,0,0,1-1.61.22h-3.79V73.9Zm-2,1.15v3.67h1.92a3.75,3.75,0,0,0,1.07-.14,2,2,0,0,0,.75-.37,1.38,1.38,0,0,0,.44-.58,1.86,1.86,0,0,0,.14-.75,1.65,1.65,0,0,0-.57-1.39,2.92,2.92,0,0,0-1.77-.44Zm2.33,8.45a3.41,3.41,0,0,0,1.07-.15,1.81,1.81,0,0,0,.74-.4,1.52,1.52,0,0,0,.42-.61,2.22,2.22,0,0,0,.14-.79,1.61,1.61,0,0,0-.59-1.31,2.8,2.8,0,0,0-1.78-.49h-2.33V83.5Z" transform="translate(-3.93 -3.18)"/><path class="cls-1" d="M209.72,84.65H208.6a.47.47,0,0,1-.32-.1.55.55,0,0,1-.18-.24l-1-2.6h-4.83l-1,2.6a.56.56,0,0,1-.17.24.49.49,0,0,1-.32.1h-1.12L204,73.9h1.47Zm-3-4L205,76.29q-.08-.2-.15-.45c-.06-.18-.11-.36-.16-.56a9,9,0,0,1-.32,1l-1.69,4.36Z" transform="translate(-3.93 -3.18)"/><path class="cls-1" d="M224.24,84.65H223a.62.62,0,0,1-.58-.31l-2.79-3.84a.8.8,0,0,0-.28-.25.91.91,0,0,0-.45-.08h-1.1v4.48H216.3V73.9h3a6.53,6.53,0,0,1,1.76.21,3.4,3.4,0,0,1,1.22.6,2.27,2.27,0,0,1,.72.94,3.06,3.06,0,0,1,.23,1.23,3.12,3.12,0,0,1-.18,1.07,2.85,2.85,0,0,1-.52.89,3.09,3.09,0,0,1-.83.67,4.57,4.57,0,0,1-1.11.42,1.57,1.57,0,0,1,.48.45Zm-5-5.54a3.73,3.73,0,0,0,1.11-.15,2.42,2.42,0,0,0,.81-.44,1.79,1.79,0,0,0,.49-.67,2.2,2.2,0,0,0,.17-.86,1.72,1.72,0,0,0-.63-1.45,3,3,0,0,0-1.89-.49h-1.59v4.06Z" transform="translate(-3.93 -3.18)"/></svg>